<svg width="126" height="126" viewBox="0 0 126 126" fill="none" xmlns="http://www.w3.org/2000/svg">
<path d="M31.0817 65.1169L31.3535 64.6896L47.7423 39.0514C47.9818 38.676 48.5449 38.7148 48.7261 39.1226C51.4641 45.2586 53.8266 52.89 52.7198 57.6409C52.2473 59.5957 50.9528 62.2429 49.4964 64.6896C49.3088 65.0457 49.1016 65.3952 48.8815 65.7318C48.7779 65.8871 48.6032 65.9777 48.4154 65.9777H31.5606C31.1075 65.9777 30.8422 65.4858 31.0817 65.1169Z" fill="black"/>
<path d="M104.132 69.8808V73.9392C104.132 74.1721 103.99 74.3793 103.782 74.4699C102.514 75.0136 98.1706 77.0071 96.3648 79.5186C91.7562 85.933 88.2351 95.1048 80.3643 95.1048H47.5284C35.8907 95.1048 26.46 85.6418 26.46 73.965V73.5896C26.46 73.2789 26.7123 73.0265 27.0231 73.0265H45.3278C45.6902 73.0265 45.9556 73.3631 45.9233 73.719C45.7938 74.91 46.0139 76.1269 46.577 77.2337C47.6644 79.4409 49.9169 80.8196 52.3506 80.8196H61.4124V73.745H52.4541C51.9946 73.745 51.7228 73.2142 51.9882 72.8388C52.0852 72.6899 52.1953 72.5346 52.3118 72.3599C53.1597 71.1559 54.3701 69.2853 55.574 67.1558C56.396 65.7189 57.1921 64.1849 57.833 62.6444C57.9625 62.3661 58.0659 62.0812 58.1695 61.8028C58.3443 61.3109 58.5256 60.8514 58.655 60.3919C58.7845 60.0034 58.8879 59.5957 58.9915 59.2138C59.2958 57.9063 59.4252 56.5212 59.4252 55.0843C59.4252 54.5212 59.3994 53.9321 59.3476 53.369C59.3216 52.7541 59.244 52.1391 59.1663 51.5243C59.1145 50.9806 59.0175 50.4433 58.9139 49.8802C58.7845 49.0582 58.6032 48.2427 58.396 47.4206L58.3249 47.11C58.1695 46.5468 58.0401 46.0096 57.8589 45.4465C57.3475 43.6794 56.7585 41.9577 56.1371 40.346C55.9106 39.7052 55.6516 39.0903 55.3927 38.4754C55.0109 37.5498 54.6225 36.7084 54.2665 35.9122C54.0853 35.5497 53.93 35.2196 53.7746 34.8831C53.5999 34.5011 53.4187 34.1192 53.2374 33.7569C53.108 33.4785 52.959 33.2196 52.8554 32.9607L51.7487 30.9153C51.5933 30.637 51.8522 30.3069 52.1564 30.391L59.0822 32.268H59.1016C59.1145 32.268 59.1211 32.2746 59.1275 32.2746L60.0401 32.527L61.0434 32.8119L61.4124 32.9153V28.7988C61.4124 26.8116 63.0046 25.2 64.9724 25.2C65.9562 25.2 66.8494 25.6013 67.4902 26.2549C68.1309 26.9088 68.5322 27.802 68.5322 28.7988V34.909L69.2702 35.116C69.3284 35.1356 69.3867 35.1614 69.4384 35.2002C69.6198 35.3362 69.8786 35.5367 70.2087 35.7828C70.4676 35.9898 70.7459 36.2423 71.0825 36.5013C71.7491 37.0384 72.5453 37.731 73.4192 38.5272C73.6521 38.7278 73.8787 38.935 74.0858 39.1421C75.2121 40.1907 76.4743 41.4204 77.6782 42.7797C78.0147 43.1616 78.3449 43.55 78.6814 43.9577C79.018 44.372 79.374 44.7797 79.6846 45.1876C80.0925 45.7313 80.5326 46.2944 80.9145 46.8834C81.0957 47.1618 81.3028 47.4465 81.4776 47.7248C81.9695 48.4691 82.4032 49.2395 82.8175 50.0097C82.9923 50.3657 83.1734 50.754 83.3288 51.1359C83.7883 52.1651 84.1508 53.2137 84.3838 54.2622C84.455 54.4888 84.5068 54.7347 84.5327 54.9549V55.0066C84.6103 55.3172 84.6363 55.6474 84.6621 55.9839C84.7657 57.0584 84.7139 58.1328 84.4809 59.2138C84.3838 59.6734 84.2544 60.107 84.099 60.5666C83.9437 61.0068 83.7883 61.4663 83.5877 61.9C83.1994 62.7996 82.7398 63.6994 82.1961 64.5408C82.0213 64.8515 81.8142 65.1816 81.607 65.4924C81.3805 65.8224 81.1475 66.1331 80.9403 66.4374C80.6556 66.8257 80.3514 67.2334 80.0407 67.5959C79.7624 67.9778 79.4776 68.3597 79.1669 68.6963C78.7332 69.2076 78.3189 69.6931 77.8852 70.1592C77.6264 70.4633 77.3481 70.774 77.0632 71.0524C76.785 71.363 76.5001 71.6413 76.2412 71.9002C75.8076 72.3339 75.4451 72.6705 75.1408 72.9488L74.4289 73.6026C74.3253 73.6932 74.1894 73.745 74.047 73.745H68.5322V80.8196H75.4709C77.0244 80.8196 78.5002 80.2694 79.6912 79.2596C80.0989 78.9037 81.8789 77.3632 83.9825 75.0395C84.0537 74.9618 84.1444 74.9036 84.248 74.8777L103.413 69.3371C103.77 69.2336 104.132 69.5053 104.132 69.8808Z" fill="black"/>
</svg>
