<svg width="1920" height="1080" viewBox="0 0 1920 1080" fill="none" xmlns="http://www.w3.org/2000/svg">
<rect width="1920" height="1080" fill="#272727"/>
<path d="M1874 61.0568L1874 59.0568L1876 59.0568L1876 61.0568L1874 61.0568ZM1861.22 61.0568L1859.87 59.5802L1860.44 59.0568L1861.22 59.0568L1861.22 61.0568ZM1808.66 109.068L1807.31 107.593L1807.31 107.592L1808.66 109.068ZM1792.61 122.989L1793.86 124.549L1793.85 124.555L1792.61 122.989ZM1779.68 131.085L1778.87 129.256L1778.88 129.251L1779.68 131.085ZM1753.62 130.091L1754.7 128.411L1754.71 128.415L1754.72 128.42L1753.62 130.091ZM1744.95 120.148L1743.15 121.018L1743.15 121.018L1744.95 120.148ZM1745.38 91.3125L1747.13 92.2787L1747.13 92.2855L1745.38 91.3125ZM1754.97 81.7244L1754 79.9733L1754.01 79.969L1754.02 79.9648L1754.97 81.7244ZM1769.45 78.3864L1771.45 78.3864L1771.45 80.3864L1769.45 80.3864L1769.45 78.3864ZM1769.45 61.625L1769.45 59.625L1771.45 59.625L1771.45 61.625L1769.45 61.625ZM1747.01 67.5199L1748.05 69.2271L1748.05 69.2271L1747.01 67.5199ZM1731.95 83.571L1730.19 82.6375L1730.19 82.6324L1731.95 83.571ZM1731.95 129.168L1730.2 130.127L1730.2 130.127L1731.95 129.168ZM1746.51 144.651L1747.56 142.945L1746.51 144.651ZM1782.59 147.349L1781.88 145.48L1781.89 145.476L1782.59 147.349ZM1799.57 137.406L1798.36 135.812L1798.36 135.811L1799.57 137.406ZM1822.3 117.875L1823.66 119.336L1823.66 119.339L1822.3 117.875ZM1857.24 85.2046L1855.87 83.7436L1856.45 83.2046L1857.24 83.2046L1857.24 85.2046ZM1858.37 85.2046L1858.37 83.2046L1860.37 83.2046L1860.37 85.2046L1858.37 85.2046ZM1858.37 152.818L1858.37 154.818L1856.37 154.818L1856.37 152.818L1858.37 152.818ZM1874 152.818L1876 152.818L1876 154.818L1874 154.818L1874 152.818ZM1874 63.0568L1861.22 63.0568L1861.22 59.0568L1874 59.0568L1874 63.0568ZM1862.56 62.5335L1810.01 110.545L1807.31 107.592L1859.87 59.5802L1862.56 62.5335ZM1810.01 110.543C1803.83 116.196 1798.45 120.867 1793.86 124.549L1791.36 121.428C1795.86 117.819 1801.17 113.209 1807.31 107.593L1810.01 110.543ZM1793.85 124.555C1789.16 128.275 1784.71 131.079 1780.48 132.919L1778.88 129.251C1782.71 127.588 1786.87 124.994 1791.36 121.422L1793.85 124.555ZM1780.49 132.915C1776.16 134.826 1771.63 135.784 1766.9 135.784L1766.9 131.784C1771.07 131.784 1775.06 130.943 1778.87 129.256L1780.49 132.915ZM1766.9 135.784C1761.45 135.784 1756.63 134.468 1752.52 131.761L1754.72 128.42C1758.09 130.638 1762.12 131.784 1766.9 131.784L1766.9 135.784ZM1752.53 131.771C1748.47 129.147 1745.34 125.545 1743.15 121.018L1746.75 119.278C1748.64 123.179 1751.29 126.205 1754.7 128.411L1752.53 131.771ZM1743.15 121.018C1740.97 116.501 1739.9 111.463 1739.9 105.943L1743.9 105.943C1743.9 110.935 1744.86 115.367 1746.75 119.278L1743.15 121.018ZM1739.9 105.943C1739.9 100.074 1741.12 94.8511 1743.63 90.3395L1747.13 92.2855C1745 96.1072 1743.9 100.638 1743.9 105.943L1739.9 105.943ZM1743.63 90.3463C1746.08 85.8965 1749.55 82.4284 1754 79.9733L1755.93 83.4756C1752.14 85.566 1749.22 88.4898 1747.13 92.2787L1743.63 90.3463ZM1754.02 79.9648C1758.48 77.5551 1763.64 76.3864 1769.45 76.3864L1769.45 80.3864C1764.19 80.3864 1759.69 81.443 1755.92 83.4841L1754.02 79.9648ZM1767.45 78.3864L1767.45 61.625L1771.45 61.625L1771.45 78.3864L1767.45 78.3864ZM1769.45 63.625C1761.25 63.625 1754.14 65.5126 1748.05 69.2271L1745.97 65.8127C1752.76 61.6673 1760.61 59.625 1769.45 59.625L1769.45 63.625ZM1748.05 69.2271C1741.92 72.9671 1737.15 78.0498 1733.72 84.5096L1730.19 82.6324C1733.95 75.5506 1739.22 69.9325 1745.97 65.8127L1748.05 69.2271ZM1733.72 84.5045C1730.29 91.0072 1728.56 98.3284 1728.56 106.511L1724.56 106.511C1724.56 97.7436 1726.42 89.7712 1730.19 82.6375L1733.72 84.5045ZM1728.56 106.511C1728.56 114.745 1730.29 121.959 1733.71 128.208L1730.2 130.127C1726.42 123.213 1724.56 115.323 1724.56 106.511L1728.56 106.511ZM1733.71 128.208C1737.15 134.498 1741.76 139.396 1747.56 142.945L1745.47 146.356C1739.05 142.424 1733.96 137 1730.2 130.127L1733.71 128.208ZM1747.56 142.945C1753.34 146.484 1759.77 148.261 1766.9 148.261L1766.9 152.261C1759.07 152.261 1751.91 150.298 1745.47 146.356L1747.56 142.945ZM1766.9 148.261C1772 148.261 1776.99 147.337 1781.88 145.48L1783.3 149.219C1777.97 151.245 1772.5 152.261 1766.9 152.261L1766.9 148.261ZM1781.89 145.476C1786.72 143.673 1792.2 140.477 1798.36 135.812L1800.78 139C1794.43 143.805 1788.6 147.238 1783.29 149.223L1781.89 145.476ZM1798.36 135.811C1804.49 131.181 1812.01 124.721 1820.93 116.411L1823.66 119.339C1814.68 127.696 1807.05 134.257 1800.77 139.002L1798.36 135.811ZM1820.93 116.414L1855.87 83.7436L1858.6 86.6655L1823.66 119.336L1820.93 116.414ZM1857.24 83.2046L1858.37 83.2046L1858.37 87.2046L1857.24 87.2046L1857.24 83.2046ZM1860.37 85.2046L1860.37 152.818L1856.37 152.818L1856.37 85.2046L1860.37 85.2046ZM1858.37 150.818L1874 150.818L1874 154.818L1858.37 154.818L1858.37 150.818ZM1872 152.818L1872 61.0568L1876 61.0568L1876 152.818L1872 152.818ZM1867.25 202.25L1868.83 201.02L1868.83 201.026L1867.25 202.25ZM1841.76 184.991L1842.43 183.107L1842.43 183.108L1841.76 184.991ZM1761 184.991L1760.33 183.11L1760.33 183.108L1761 184.991ZM1735.43 202.321L1737.01 203.551L1737.01 203.552L1735.43 202.321ZM1735.43 256.795L1737.01 255.559L1737.02 255.57L1735.43 256.795ZM1761 274.125L1761.67 272.241L1761.68 272.244L1761 274.125ZM1841.76 274.196L1842.43 276.079L1842.43 276.08L1841.76 274.196ZM1867.25 256.938L1868.83 258.161L1868.83 258.167L1867.25 256.938ZM1845.02 254.31L1844.03 252.575L1844.03 252.575L1845.02 254.31ZM1769.1 259.068L1769.67 257.152L1769.68 257.155L1769.1 259.068ZM1748.86 247.563L1750.32 246.198L1750.33 246.205L1748.86 247.563ZM1757.45 204.949L1758.45 206.684L1758.44 206.686L1757.45 204.949ZM1833.37 200.048L1833.95 198.133L1833.95 198.133L1833.37 200.048ZM1853.47 211.483L1854.94 210.126L1854.95 210.133L1853.47 211.483ZM1873.99 229.594C1873.99 219.278 1871.19 210.609 1865.67 203.474L1868.83 201.026C1874.96 208.948 1877.99 218.508 1877.99 229.594L1873.99 229.594ZM1865.68 203.48C1860.09 196.315 1851.94 190.755 1841.08 186.875L1842.43 183.108C1853.83 187.183 1862.68 193.129 1868.83 201.02L1865.68 203.48ZM1841.09 186.876C1830.18 182.996 1816.93 181.026 1801.27 181.026L1801.27 177.026C1817.24 177.026 1830.98 179.033 1842.43 183.107L1841.09 186.876ZM1801.27 181.026C1785.71 181.026 1772.53 182.996 1761.68 186.875L1760.33 183.108C1771.73 179.033 1785.39 177.026 1801.27 177.026L1801.27 181.026ZM1761.68 186.873C1750.78 190.801 1742.6 196.385 1737.01 203.551L1733.86 201.091C1740.01 193.2 1748.88 187.231 1760.33 183.11L1761.68 186.873ZM1737.01 203.552C1731.4 210.74 1728.56 219.385 1728.56 229.594L1724.56 229.594C1724.56 218.59 1727.64 209.054 1733.86 201.09L1737.01 203.552ZM1728.56 229.594C1728.56 239.803 1731.4 248.422 1737.01 255.559L1733.86 258.032C1727.64 250.113 1724.56 240.597 1724.56 229.594L1728.56 229.594ZM1737.02 255.57C1742.6 262.779 1750.77 268.361 1761.67 272.241L1760.33 276.009C1748.88 271.934 1740.01 265.963 1733.85 258.021L1737.02 255.57ZM1761.68 272.244C1772.53 276.169 1785.71 278.162 1801.27 278.162L1801.27 282.162C1785.39 282.162 1771.73 280.13 1760.32 276.006L1761.68 272.244ZM1801.27 278.162C1816.93 278.162 1830.18 276.192 1841.09 272.312L1842.43 276.08C1830.98 280.155 1817.24 282.162 1801.27 282.162L1801.27 278.162ZM1841.08 272.313C1851.94 268.433 1860.09 262.873 1865.68 255.708L1868.83 258.167C1862.68 266.059 1853.83 272.005 1842.43 276.079L1841.08 272.313ZM1865.67 255.714C1871.19 248.579 1873.99 239.91 1873.99 229.594L1877.99 229.594C1877.99 240.68 1874.96 250.239 1868.83 258.161L1865.67 255.714ZM1862.36 229.594C1862.36 241.008 1856.78 249.865 1846.02 256.044L1844.03 252.575C1853.72 247.012 1858.36 239.392 1858.36 229.594L1862.36 229.594ZM1846.02 256.044C1835.36 262.164 1820.37 265.116 1801.27 265.116L1801.27 261.116C1820.05 261.116 1834.23 258.197 1844.03 252.575L1846.02 256.044ZM1801.27 265.116C1788.55 265.116 1777.61 263.754 1768.52 260.981L1769.68 257.155C1778.29 259.78 1788.81 261.116 1801.27 261.116L1801.27 265.116ZM1768.53 260.984C1759.45 258.265 1752.34 254.279 1747.39 248.92L1750.33 246.205C1754.65 250.884 1761.05 254.569 1769.67 257.152L1768.53 260.984ZM1747.4 248.927C1742.4 243.573 1739.9 237.091 1739.9 229.594L1743.9 229.594C1743.9 236.112 1746.04 241.609 1750.32 246.198L1747.4 248.927ZM1739.9 229.594C1739.9 218.254 1745.57 209.428 1756.46 203.212L1758.44 206.686C1748.6 212.307 1743.9 219.911 1743.9 229.594L1739.9 229.594ZM1756.46 203.214C1767.21 197.048 1782.22 194.071 1801.27 194.071L1801.27 198.071C1782.54 198.071 1768.34 201.012 1758.45 206.684L1756.46 203.214ZM1801.27 194.071C1814 194.071 1824.9 195.409 1833.95 198.133L1832.8 201.963C1824.23 199.385 1813.74 198.071 1801.27 198.071L1801.27 194.071ZM1833.95 198.133C1842.98 200.852 1850.04 204.814 1854.94 210.126L1852.01 212.84C1847.73 208.209 1841.38 204.547 1832.8 201.963L1833.95 198.133ZM1854.95 210.133C1859.89 215.535 1862.36 222.059 1862.36 229.594L1858.36 229.594C1858.36 223.018 1856.24 217.469 1852 212.833L1854.95 210.133ZM1874 307.151L1874 305.151L1876 305.151L1876 307.151L1874 307.151ZM1861.22 307.151L1859.87 305.674L1860.44 305.151L1861.22 305.151L1861.22 307.151ZM1808.66 355.162L1807.31 353.687L1807.31 353.685L1808.66 355.162ZM1792.61 369.082L1793.86 370.643L1793.85 370.649L1792.61 369.082ZM1779.68 377.179L1778.87 375.35L1778.88 375.345L1779.68 377.179ZM1753.62 376.185L1754.7 374.504L1754.71 374.509L1754.72 374.514L1753.62 376.185ZM1744.95 366.241L1743.15 367.112L1743.15 367.112L1744.95 366.241ZM1745.38 337.406L1747.13 338.372L1747.13 338.379L1745.38 337.406ZM1754.97 327.818L1754 326.067L1754.01 326.063L1754.02 326.059L1754.97 327.818ZM1769.45 324.48L1771.45 324.48L1771.45 326.48L1769.45 326.48L1769.45 324.48ZM1769.45 307.719L1769.45 305.719L1771.45 305.719L1771.45 307.719L1769.45 307.719ZM1747.01 313.614L1748.05 315.321L1748.05 315.321L1747.01 313.614ZM1731.95 329.665L1730.19 328.731L1730.19 328.726L1731.95 329.665ZM1731.95 375.261L1730.2 376.221L1730.2 376.221L1731.95 375.261ZM1746.51 390.744L1747.56 389.039L1746.51 390.744ZM1782.59 393.443L1781.88 391.573L1781.89 391.57L1782.59 393.443ZM1799.57 383.5L1798.36 381.906L1798.36 381.904L1799.57 383.5ZM1822.3 363.969L1823.66 365.43L1823.66 365.432L1822.3 363.969ZM1857.24 331.298L1855.87 329.837L1856.45 329.298L1857.24 329.298L1857.24 331.298ZM1858.37 331.298L1858.37 329.298L1860.37 329.298L1860.37 331.298L1858.37 331.298ZM1858.37 398.912L1858.37 400.912L1856.37 400.912L1856.37 398.912L1858.37 398.912ZM1874 398.912L1876 398.912L1876 400.912L1874 400.912L1874 398.912ZM1874 309.151L1861.22 309.151L1861.22 305.151L1874 305.151L1874 309.151ZM1862.56 308.627L1810.01 356.639L1807.31 353.685L1859.87 305.674L1862.56 308.627ZM1810.01 356.637C1803.83 362.29 1798.45 366.961 1793.86 370.643L1791.36 367.522C1795.86 363.912 1801.17 359.303 1807.31 353.687L1810.01 356.637ZM1793.85 370.649C1789.16 374.369 1784.71 377.173 1780.48 379.013L1778.88 375.345C1782.71 373.681 1786.87 371.087 1791.36 367.516L1793.85 370.649ZM1780.49 379.008C1776.16 380.92 1771.63 381.878 1766.9 381.878L1766.9 377.878C1771.07 377.878 1775.06 377.036 1778.87 375.35L1780.49 379.008ZM1766.9 381.878C1761.45 381.878 1756.63 380.562 1752.52 377.855L1754.72 374.514C1758.09 376.732 1762.12 377.878 1766.9 377.878L1766.9 381.878ZM1752.53 377.865C1748.47 375.241 1745.34 371.639 1743.15 367.112L1746.75 365.371C1748.64 369.272 1751.29 372.299 1754.7 374.504L1752.53 377.865ZM1743.15 367.112C1740.97 362.594 1739.9 357.557 1739.9 352.037L1743.9 352.037C1743.9 357.029 1744.86 361.46 1746.75 365.371L1743.15 367.112ZM1739.9 352.037C1739.9 346.168 1741.12 340.945 1743.63 336.433L1747.13 338.379C1745 342.201 1743.9 346.732 1743.9 352.037L1739.9 352.037ZM1743.63 336.44C1746.08 331.99 1749.55 328.522 1754 326.067L1755.93 329.569C1752.14 331.66 1749.22 334.584 1747.13 338.372L1743.63 336.44ZM1754.02 326.059C1758.48 323.649 1763.64 322.48 1769.45 322.48L1769.45 326.48C1764.19 326.48 1759.69 327.537 1755.92 329.578L1754.02 326.059ZM1767.45 324.48L1767.45 307.719L1771.45 307.719L1771.45 324.48L1767.45 324.48ZM1769.45 309.719C1761.25 309.719 1754.14 311.606 1748.05 315.321L1745.97 311.906C1752.76 307.761 1760.61 305.719 1769.45 305.719L1769.45 309.719ZM1748.05 315.321C1741.92 319.061 1737.15 324.144 1733.72 330.603L1730.19 328.726C1733.95 321.644 1739.22 316.026 1745.97 311.906L1748.05 315.321ZM1733.72 330.598C1730.29 337.101 1728.56 344.422 1728.56 352.605L1724.56 352.605C1724.56 343.837 1726.42 335.865 1730.19 328.731L1733.72 330.598ZM1728.56 352.605C1728.56 360.839 1730.29 368.053 1733.71 374.302L1730.2 376.221C1726.42 369.307 1724.56 361.417 1724.56 352.605L1728.56 352.605ZM1733.71 374.302C1737.15 380.592 1741.76 385.489 1747.56 389.039L1745.47 392.45C1739.05 388.518 1733.96 383.094 1730.2 376.221L1733.71 374.302ZM1747.56 389.039C1753.34 392.578 1759.77 394.355 1766.9 394.355L1766.9 398.355C1759.07 398.355 1751.91 396.392 1745.47 392.45L1747.56 389.039ZM1766.9 394.355C1772 394.355 1776.99 393.431 1781.88 391.573L1783.3 395.313C1777.97 397.338 1772.5 398.355 1766.9 398.355L1766.9 394.355ZM1781.89 391.57C1786.72 389.767 1792.2 386.571 1798.36 381.906L1800.78 385.094C1794.43 389.899 1788.6 393.332 1783.29 395.317L1781.89 391.57ZM1798.36 381.904C1804.49 377.275 1812.01 370.815 1820.93 362.505L1823.66 365.432C1814.68 373.789 1807.05 380.35 1800.77 385.096L1798.36 381.904ZM1820.93 362.508L1855.87 329.837L1858.6 332.759L1823.66 365.43L1820.93 362.508ZM1857.24 329.298L1858.37 329.298L1858.37 333.298L1857.24 333.298L1857.24 329.298ZM1860.37 331.298L1860.37 398.912L1856.37 398.912L1856.37 331.298L1860.37 331.298ZM1858.37 396.912L1874 396.912L1874 400.912L1858.37 400.912L1858.37 396.912ZM1872 398.912L1872 307.151L1876 307.151L1876 398.912L1872 398.912ZM1874 428.244L1874 426.244L1876 426.244L1876 428.244L1874 428.244ZM1861.22 428.244L1859.87 426.768L1860.44 426.244L1861.22 426.244L1861.22 428.244ZM1808.66 476.256L1807.31 474.78L1807.31 474.779L1808.66 476.256ZM1792.61 490.176L1793.86 491.736L1793.85 491.743L1792.61 490.176ZM1779.68 498.273L1778.87 496.443L1778.88 496.439L1779.68 498.273ZM1753.62 497.278L1754.7 495.598L1754.71 495.603L1754.72 495.608L1753.62 497.278ZM1744.95 487.335L1743.15 488.205L1743.15 488.205L1744.95 487.335ZM1745.38 458.5L1747.13 459.466L1747.13 459.473L1745.38 458.5ZM1754.97 448.912L1754 447.161L1754.01 447.157L1754.02 447.152L1754.97 448.912ZM1769.45 445.574L1771.45 445.574L1771.45 447.574L1769.45 447.574L1769.45 445.574ZM1769.45 428.813L1769.45 426.813L1771.45 426.813L1771.45 428.813L1769.45 428.813ZM1747.01 434.707L1748.05 436.415L1748.05 436.415L1747.01 434.707ZM1731.95 450.759L1730.19 449.825L1730.19 449.82L1731.95 450.759ZM1731.95 496.355L1730.2 497.315L1730.2 497.315L1731.95 496.355ZM1746.51 511.838L1747.56 510.132L1746.51 511.838ZM1782.59 514.537L1781.88 512.667L1781.89 512.664L1782.59 514.537ZM1799.57 504.594L1798.36 503L1798.36 502.998L1799.57 504.594ZM1822.3 485.063L1823.66 486.523L1823.66 486.526L1822.3 485.063ZM1857.24 452.392L1855.87 450.931L1856.45 450.392L1857.24 450.392L1857.24 452.392ZM1858.37 452.392L1858.37 450.392L1860.37 450.392L1860.37 452.392L1858.37 452.392ZM1858.37 520.006L1858.37 522.006L1856.37 522.006L1856.37 520.006L1858.37 520.006ZM1874 520.006L1876 520.006L1876 522.006L1874 522.006L1874 520.006ZM1874 430.244L1861.22 430.244L1861.22 426.244L1874 426.244L1874 430.244ZM1862.56 429.721L1810.01 477.732L1807.31 474.779L1859.87 426.768L1862.56 429.721ZM1810.01 477.731C1803.83 483.383 1798.45 488.054 1793.86 491.736L1791.36 488.616C1795.86 485.006 1801.17 480.397 1807.31 474.78L1810.01 477.731ZM1793.85 491.743C1789.16 495.463 1784.71 498.266 1780.48 500.107L1778.88 496.439C1782.71 494.775 1786.87 492.181 1791.36 488.61L1793.85 491.743ZM1780.49 500.102C1776.16 502.014 1771.63 502.972 1766.9 502.972L1766.9 498.972C1771.07 498.972 1775.06 498.13 1778.87 496.443L1780.49 500.102ZM1766.9 502.972C1761.45 502.972 1756.63 501.655 1752.52 498.949L1754.72 495.608C1758.09 497.826 1762.12 498.972 1766.9 498.972L1766.9 502.972ZM1752.53 498.959C1748.47 496.334 1745.34 492.732 1743.15 488.205L1746.75 486.465C1748.64 490.366 1751.29 493.393 1754.7 495.598L1752.53 498.959ZM1743.15 488.205C1740.97 483.688 1739.9 478.65 1739.9 473.131L1743.9 473.131C1743.9 478.122 1744.86 482.554 1746.75 486.465L1743.15 488.205ZM1739.9 473.131C1739.9 467.262 1741.12 462.039 1743.63 457.527L1747.13 459.473C1745 463.295 1743.9 467.825 1743.9 473.131L1739.9 473.131ZM1743.63 457.534C1746.08 453.084 1749.55 449.616 1754 447.161L1755.93 450.663C1752.14 452.753 1749.22 455.677 1747.13 459.466L1743.63 457.534ZM1754.02 447.152C1758.48 444.743 1763.64 443.574 1769.45 443.574L1769.45 447.574C1764.19 447.574 1759.69 448.631 1755.92 450.672L1754.02 447.152ZM1767.45 445.574L1767.45 428.813L1771.45 428.813L1771.45 445.574L1767.45 445.574ZM1769.45 430.813C1761.25 430.813 1754.14 432.7 1748.05 436.415L1745.97 433C1752.76 428.855 1760.61 426.813 1769.45 426.813L1769.45 430.813ZM1748.05 436.415C1741.92 440.155 1737.15 445.237 1733.72 451.697L1730.19 449.82C1733.95 442.738 1739.22 437.12 1745.97 433L1748.05 436.415ZM1733.72 451.692C1730.29 458.195 1728.56 465.516 1728.56 473.699L1724.56 473.699C1724.56 464.931 1726.42 456.959 1730.19 449.825L1733.72 451.692ZM1728.56 473.699C1728.56 481.933 1730.29 489.147 1733.71 495.396L1730.2 497.315C1726.42 490.401 1724.56 482.511 1724.56 473.699L1728.56 473.699ZM1733.71 495.396C1737.15 501.686 1741.76 506.583 1747.56 510.132L1745.47 513.544C1739.05 509.612 1733.96 504.187 1730.2 497.315L1733.71 495.396ZM1747.56 510.132C1753.34 513.672 1759.77 515.449 1766.9 515.449L1766.9 519.449C1759.07 519.449 1751.91 517.485 1745.47 513.544L1747.56 510.132ZM1766.9 515.449C1772 515.449 1776.99 514.524 1781.88 512.667L1783.3 516.407C1777.97 518.432 1772.5 519.449 1766.9 519.449L1766.9 515.449ZM1781.89 512.664C1786.72 510.861 1792.2 507.665 1798.36 503L1800.78 506.188C1794.43 510.992 1788.6 514.425 1783.29 516.41L1781.89 512.664ZM1798.36 502.998C1804.49 498.368 1812.01 491.909 1820.93 483.599L1823.66 486.526C1814.68 494.883 1807.05 501.444 1800.77 506.189L1798.36 502.998ZM1820.93 483.602L1855.87 450.931L1858.6 453.853L1823.66 486.523L1820.93 483.602ZM1857.24 450.392L1858.37 450.392L1858.37 454.392L1857.24 454.392L1857.24 450.392ZM1860.37 452.392L1860.37 520.006L1856.37 520.006L1856.37 452.392L1860.37 452.392ZM1858.37 518.006L1874 518.006L1874 522.006L1858.37 522.006L1858.37 518.006ZM1872 520.006L1872 428.244L1876 428.244L1876 520.006L1872 520.006ZM1793.46 612.122L1793.46 614.122L1791.46 614.122L1791.46 612.122L1793.46 612.122ZM1809.09 612.122L1811.09 612.122L1811.09 614.122L1809.09 614.122L1809.09 612.122ZM1809.09 548.486L1809.09 546.486L1811.09 546.486L1811.09 548.486L1809.09 548.486ZM1793.46 548.486L1791.46 548.486L1791.46 546.486L1793.46 546.486L1793.46 548.486ZM1793.46 610.122L1809.09 610.122L1809.09 614.122L1793.46 614.122L1793.46 610.122ZM1807.09 612.122L1807.09 548.486L1811.09 548.486L1811.09 612.122L1807.09 612.122ZM1809.09 550.486L1793.46 550.486L1793.46 546.486L1809.09 546.486L1809.09 550.486ZM1795.46 548.486L1795.46 612.122L1791.46 612.122L1791.46 548.486L1795.46 548.486ZM1874 634.494L1874 632.494L1876 632.494L1876 634.494L1874 634.494ZM1861.22 634.494L1859.87 633.018L1860.44 632.494L1861.22 632.494L1861.22 634.494ZM1808.66 682.506L1807.31 681.03L1807.31 681.029L1808.66 682.506ZM1792.61 696.426L1793.86 697.986L1793.85 697.993L1792.61 696.426ZM1779.68 704.523L1778.87 702.693L1778.88 702.689L1779.68 704.523ZM1753.62 703.528L1754.7 701.848L1754.71 701.853L1754.72 701.858L1753.62 703.528ZM1744.95 693.585L1743.15 694.455L1743.15 694.455L1744.95 693.585ZM1745.38 664.75L1747.13 665.716L1747.13 665.723L1745.38 664.75ZM1754.97 655.162L1754 653.411L1754.01 653.407L1754.02 653.402L1754.97 655.162ZM1769.45 651.824L1771.45 651.824L1771.45 653.824L1769.45 653.824L1769.45 651.824ZM1769.45 635.063L1769.45 633.063L1771.45 633.063L1771.45 635.063L1769.45 635.063ZM1747.01 640.957L1748.05 642.665L1748.05 642.665L1747.01 640.957ZM1731.95 657.009L1730.19 656.075L1730.19 656.07L1731.95 657.009ZM1731.95 702.605L1730.2 703.565L1730.2 703.565L1731.95 702.605ZM1746.51 718.088L1747.56 716.382L1746.51 718.088ZM1782.59 720.787L1781.88 718.917L1781.89 718.914L1782.59 720.787ZM1799.57 710.844L1798.36 709.25L1798.36 709.248L1799.57 710.844ZM1822.3 691.313L1823.66 692.773L1823.66 692.776L1822.3 691.313ZM1857.24 658.642L1855.87 657.181L1856.45 656.642L1857.24 656.642L1857.24 658.642ZM1858.37 658.642L1858.37 656.642L1860.37 656.642L1860.37 658.642L1858.37 658.642ZM1858.37 726.256L1858.37 728.256L1856.37 728.256L1856.37 726.256L1858.37 726.256ZM1874 726.256L1876 726.256L1876 728.256L1874 728.256L1874 726.256ZM1874 636.494L1861.22 636.494L1861.22 632.494L1874 632.494L1874 636.494ZM1862.56 635.971L1810.01 683.982L1807.31 681.029L1859.87 633.018L1862.56 635.971ZM1810.01 683.981C1803.83 689.633 1798.45 694.304 1793.86 697.986L1791.36 694.866C1795.86 691.256 1801.17 686.647 1807.31 681.03L1810.01 683.981ZM1793.85 697.993C1789.16 701.713 1784.71 704.516 1780.48 706.357L1778.88 702.689C1782.71 701.025 1786.87 698.431 1791.36 694.86L1793.85 697.993ZM1780.49 706.352C1776.16 708.264 1771.63 709.222 1766.9 709.222L1766.9 705.222C1771.07 705.222 1775.06 704.38 1778.87 702.693L1780.49 706.352ZM1766.9 709.222C1761.45 709.222 1756.63 707.905 1752.52 705.199L1754.72 701.858C1758.09 704.076 1762.12 705.222 1766.9 705.222L1766.9 709.222ZM1752.53 705.209C1748.47 702.584 1745.34 698.982 1743.15 694.455L1746.75 692.715C1748.64 696.616 1751.29 699.643 1754.7 701.848L1752.53 705.209ZM1743.15 694.455C1740.97 689.938 1739.9 684.9 1739.9 679.381L1743.9 679.381C1743.9 684.372 1744.86 688.804 1746.75 692.715L1743.15 694.455ZM1739.9 679.381C1739.9 673.512 1741.12 668.289 1743.63 663.777L1747.13 665.723C1745 669.545 1743.9 674.075 1743.9 679.381L1739.9 679.381ZM1743.63 663.784C1746.08 659.334 1749.55 655.866 1754 653.411L1755.93 656.913C1752.14 659.003 1749.22 661.927 1747.13 665.716L1743.63 663.784ZM1754.02 653.402C1758.48 650.993 1763.64 649.824 1769.45 649.824L1769.45 653.824C1764.19 653.824 1759.69 654.881 1755.92 656.922L1754.02 653.402ZM1767.45 651.824L1767.45 635.063L1771.45 635.063L1771.45 651.824L1767.45 651.824ZM1769.45 637.063C1761.25 637.063 1754.14 638.95 1748.05 642.665L1745.97 639.25C1752.76 635.105 1760.61 633.063 1769.45 633.063L1769.45 637.063ZM1748.05 642.665C1741.92 646.405 1737.15 651.487 1733.72 657.947L1730.19 656.07C1733.95 648.988 1739.22 643.37 1745.97 639.25L1748.05 642.665ZM1733.72 657.942C1730.29 664.445 1728.56 671.766 1728.56 679.949L1724.56 679.949C1724.56 671.181 1726.42 663.209 1730.19 656.075L1733.72 657.942ZM1728.56 679.949C1728.56 688.183 1730.29 695.397 1733.71 701.646L1730.2 703.565C1726.42 696.651 1724.56 688.761 1724.56 679.949L1728.56 679.949ZM1733.71 701.646C1737.15 707.936 1741.76 712.833 1747.56 716.382L1745.47 719.794C1739.05 715.862 1733.96 710.437 1730.2 703.565L1733.71 701.646ZM1747.56 716.382C1753.34 719.922 1759.77 721.699 1766.9 721.699L1766.9 725.699C1759.07 725.699 1751.91 723.735 1745.47 719.794L1747.56 716.382ZM1766.9 721.699C1772 721.699 1776.99 720.774 1781.88 718.917L1783.3 722.657C1777.97 724.682 1772.5 725.699 1766.9 725.699L1766.9 721.699ZM1781.89 718.914C1786.72 717.111 1792.2 713.915 1798.36 709.25L1800.78 712.438C1794.43 717.242 1788.6 720.675 1783.29 722.66L1781.89 718.914ZM1798.36 709.248C1804.49 704.618 1812.01 698.159 1820.93 689.849L1823.66 692.776C1814.68 701.133 1807.05 707.694 1800.77 712.439L1798.36 709.248ZM1820.93 689.852L1855.87 657.181L1858.6 660.103L1823.66 692.773L1820.93 689.852ZM1857.24 656.642L1858.37 656.642L1858.37 660.642L1857.24 660.642L1857.24 656.642ZM1860.37 658.642L1860.37 726.256L1856.37 726.256L1856.37 658.642L1860.37 658.642ZM1858.37 724.256L1874 724.256L1874 728.256L1858.37 728.256L1858.37 724.256ZM1872 726.256L1872 634.494L1876 634.494L1876 726.256L1872 726.256ZM1867.25 775.688L1868.83 774.458L1868.83 774.464L1867.25 775.688ZM1841.76 758.429L1842.43 756.545L1842.43 756.546L1841.76 758.429ZM1761 758.429L1760.33 756.547L1760.33 756.546L1761 758.429ZM1735.43 775.759L1737.01 776.988L1737.01 776.99L1735.43 775.759ZM1735.43 830.233L1737.01 828.997L1737.02 829.008L1735.43 830.233ZM1761 847.563L1761.67 845.678L1761.68 845.682L1761 847.563ZM1841.76 847.634L1842.43 849.517L1842.43 849.518L1841.76 847.634ZM1867.25 830.375L1868.83 831.599L1868.83 831.605L1867.25 830.375ZM1845.02 827.747L1844.03 826.013L1844.03 826.013L1845.02 827.747ZM1769.1 832.506L1769.67 830.59L1769.68 830.593L1769.1 832.506ZM1748.86 821L1750.32 819.635L1750.33 819.642L1748.86 821ZM1757.45 778.386L1758.45 780.121L1758.44 780.123L1757.45 778.386ZM1833.37 773.486L1833.95 771.571L1833.95 771.571L1833.37 773.486ZM1853.47 784.92L1854.94 783.563L1854.95 783.57L1853.47 784.92ZM1873.99 803.031C1873.99 792.716 1871.19 784.046 1865.67 776.911L1868.83 774.464C1874.96 782.386 1877.99 791.945 1877.99 803.031L1873.99 803.031ZM1865.68 776.917C1860.09 769.752 1851.94 764.192 1841.08 760.312L1842.43 756.546C1853.83 760.62 1862.68 766.566 1868.83 774.458L1865.68 776.917ZM1841.09 760.313C1830.18 756.433 1816.93 754.463 1801.27 754.463L1801.27 750.463C1817.24 750.463 1830.98 752.47 1842.43 756.545L1841.09 760.313ZM1801.27 754.463C1785.71 754.463 1772.53 756.433 1761.68 760.312L1760.33 756.546C1771.73 752.47 1785.39 750.463 1801.27 750.463L1801.27 754.463ZM1761.68 760.311C1750.78 764.238 1742.6 769.823 1737.01 776.988L1733.86 774.529C1740.01 766.637 1748.88 760.669 1760.33 756.547L1761.68 760.311ZM1737.01 776.99C1731.4 784.177 1728.56 792.823 1728.56 803.031L1724.56 803.031C1724.56 792.028 1727.64 782.491 1733.86 774.527L1737.01 776.99ZM1728.56 803.031C1728.56 813.24 1731.4 821.859 1737.01 828.997L1733.86 831.469C1727.64 823.55 1724.56 814.035 1724.56 803.031L1728.56 803.031ZM1737.02 829.008C1742.6 836.217 1750.77 841.799 1761.67 845.678L1760.33 849.447C1748.88 845.372 1740.01 839.401 1733.85 831.458L1737.02 829.008ZM1761.68 845.682C1772.53 849.606 1785.71 851.599 1801.27 851.599L1801.27 855.599C1785.39 855.599 1771.73 853.568 1760.32 849.443L1761.68 845.682ZM1801.27 851.599C1816.93 851.599 1830.18 849.629 1841.08 845.749L1842.43 849.518C1830.98 853.592 1817.24 855.599 1801.27 855.599L1801.27 851.599ZM1841.08 845.75C1851.94 841.87 1860.09 836.31 1865.68 829.145L1868.83 831.605C1862.68 839.496 1853.83 845.442 1842.43 849.517L1841.08 845.75ZM1865.67 829.151C1871.19 822.016 1873.99 813.347 1873.99 803.031L1877.99 803.031C1877.99 814.117 1874.96 823.677 1868.83 831.599L1865.67 829.151ZM1862.36 803.031C1862.36 814.446 1856.78 823.302 1846.02 829.482L1844.03 826.013C1853.72 820.45 1858.36 812.829 1858.36 803.031L1862.36 803.031ZM1846.02 829.482C1835.36 835.602 1820.37 838.554 1801.27 838.554L1801.27 834.554C1820.05 834.554 1834.23 831.635 1844.03 826.013L1846.02 829.482ZM1801.27 838.554C1788.55 838.554 1777.61 837.192 1768.52 834.419L1769.68 830.593C1778.29 833.217 1788.81 834.554 1801.27 834.554L1801.27 838.554ZM1768.53 834.422C1759.45 831.702 1752.34 827.716 1747.39 822.358L1750.33 819.642C1754.65 824.322 1761.05 828.006 1769.67 830.59L1768.53 834.422ZM1747.4 822.365C1742.4 817.01 1739.9 810.528 1739.9 803.031L1743.9 803.031C1743.9 809.549 1746.04 815.046 1750.32 819.635L1747.4 822.365ZM1739.9 803.031C1739.9 791.692 1745.57 782.866 1756.46 776.649L1758.44 780.123C1748.6 785.744 1743.9 793.348 1743.9 803.031L1739.9 803.031ZM1756.46 776.651C1767.21 770.486 1782.22 767.509 1801.27 767.509L1801.27 771.509C1782.54 771.509 1768.34 774.45 1758.45 780.121L1756.46 776.651ZM1801.27 767.509C1814 767.509 1824.9 768.846 1833.95 771.571L1832.8 775.401C1824.23 772.822 1813.74 771.509 1801.27 771.509L1801.27 767.509ZM1833.95 771.571C1842.98 774.29 1850.04 778.252 1854.94 783.563L1852.01 786.278C1847.73 781.646 1841.38 777.985 1832.8 775.401L1833.95 771.571ZM1854.95 783.57C1859.89 788.973 1862.36 795.497 1862.36 803.031L1858.36 803.031C1858.36 796.456 1856.24 790.906 1852 786.271L1854.95 783.57ZM1874 880.588L1874 878.588L1876 878.588L1876 880.588L1874 880.588ZM1861.22 880.588L1859.87 879.111L1860.44 878.588L1861.22 878.588L1861.22 880.588ZM1808.66 928.599L1807.31 927.124L1807.31 927.123L1808.66 928.599ZM1792.61 942.52L1793.86 944.08L1793.85 944.086L1792.61 942.52ZM1779.68 950.616L1778.87 948.787L1778.88 948.783L1779.68 950.616ZM1753.62 949.622L1754.7 947.942L1754.71 947.947L1754.72 947.952L1753.62 949.622ZM1744.95 939.679L1743.15 940.549L1743.15 940.549L1744.95 939.679ZM1745.38 910.844L1747.13 911.81L1747.13 911.817L1745.38 910.844ZM1754.97 901.256L1754 899.505L1754.01 899.5L1754.02 899.496L1754.97 901.256ZM1769.45 897.918L1771.45 897.918L1771.45 899.918L1769.45 899.918L1769.45 897.918ZM1769.45 881.156L1769.45 879.156L1771.45 879.156L1771.45 881.156L1769.45 881.156ZM1747.01 887.051L1748.05 888.758L1748.05 888.758L1747.01 887.051ZM1731.95 903.102L1730.19 902.169L1730.19 902.164L1731.95 903.102ZM1731.95 948.699L1730.2 949.658L1730.2 949.658L1731.95 948.699ZM1746.51 964.182L1747.56 962.476L1746.51 964.182ZM1782.59 966.881L1781.88 965.011L1781.89 965.007L1782.59 966.881ZM1799.57 956.938L1798.36 955.343L1798.36 955.342L1799.57 956.938ZM1822.3 937.406L1823.66 938.867L1823.66 938.87L1822.3 937.406ZM1857.24 904.736L1855.87 903.275L1856.45 902.736L1857.24 902.736L1857.24 904.736ZM1858.37 904.736L1858.37 902.736L1860.37 902.736L1860.37 904.736L1858.37 904.736ZM1858.37 972.349L1858.37 974.349L1856.37 974.349L1856.37 972.349L1858.37 972.349ZM1874 972.349L1876 972.349L1876 974.349L1874 974.349L1874 972.349ZM1874 882.588L1861.22 882.588L1861.22 878.588L1874 878.588L1874 882.588ZM1862.56 882.065L1810.01 930.076L1807.31 927.123L1859.87 879.111L1862.56 882.065ZM1810.01 930.075C1803.83 935.727 1798.45 940.398 1793.86 944.08L1791.36 940.96C1795.86 937.35 1801.17 932.741 1807.31 927.124L1810.01 930.075ZM1793.85 944.086C1789.16 947.807 1784.71 950.61 1780.48 952.45L1778.88 948.783C1782.71 947.119 1786.87 944.525 1791.36 940.953L1793.85 944.086ZM1780.49 952.446C1776.16 954.358 1771.63 955.315 1766.9 955.315L1766.9 951.315C1771.07 951.315 1775.06 950.474 1778.87 948.787L1780.49 952.446ZM1766.9 955.315C1761.45 955.315 1756.63 953.999 1752.52 951.293L1754.72 947.952C1758.09 950.169 1762.12 951.315 1766.9 951.315L1766.9 955.315ZM1752.53 951.302C1748.47 948.678 1745.34 945.076 1743.15 940.549L1746.75 938.809C1748.64 942.71 1751.29 945.737 1754.7 947.942L1752.53 951.302ZM1743.15 940.549C1740.97 936.032 1739.9 930.994 1739.9 925.474L1743.9 925.474C1743.9 930.466 1744.86 934.898 1746.75 938.809L1743.15 940.549ZM1739.9 925.474C1739.9 919.605 1741.12 914.382 1743.63 909.871L1747.13 911.817C1745 915.638 1743.9 920.169 1743.9 925.474L1739.9 925.474ZM1743.63 909.878C1746.08 905.428 1749.55 901.96 1754 899.505L1755.93 903.007C1752.14 905.097 1749.22 908.021 1747.13 911.81L1743.63 909.878ZM1754.02 899.496C1758.48 897.086 1763.64 895.918 1769.45 895.918L1769.45 899.918C1764.19 899.918 1759.69 900.974 1755.92 903.015L1754.02 899.496ZM1767.45 897.918L1767.45 881.156L1771.45 881.156L1771.45 897.918L1767.45 897.918ZM1769.45 883.156C1761.25 883.156 1754.14 885.044 1748.05 888.758L1745.97 885.344C1752.76 881.199 1760.61 879.156 1769.45 879.156L1769.45 883.156ZM1748.05 888.758C1741.92 892.498 1737.15 897.581 1733.72 904.041L1730.19 902.164C1733.95 895.082 1739.22 889.464 1745.97 885.344L1748.05 888.758ZM1733.72 904.036C1730.29 910.538 1728.56 917.86 1728.56 926.043L1724.56 926.043C1724.56 917.275 1726.42 909.302 1730.19 902.169L1733.72 904.036ZM1728.56 926.043C1728.56 934.276 1730.29 941.49 1733.71 947.739L1730.2 949.658C1726.42 942.745 1724.56 934.854 1724.56 926.043L1728.56 926.043ZM1733.71 947.739C1737.15 954.029 1741.76 958.927 1747.56 962.476L1745.47 965.887C1739.05 961.956 1733.96 956.531 1730.2 949.658L1733.71 947.739ZM1747.56 962.476C1753.34 966.015 1759.77 967.793 1766.9 967.793L1766.9 971.793C1759.07 971.793 1751.91 969.829 1745.47 965.887L1747.56 962.476ZM1766.9 967.793C1772 967.793 1776.99 966.868 1781.88 965.011L1783.3 968.75C1777.97 970.776 1772.5 971.793 1766.9 971.793L1766.9 967.793ZM1781.89 965.007C1786.72 963.204 1792.2 960.009 1798.36 955.343L1800.78 958.532C1794.43 963.336 1788.6 966.769 1783.29 968.754L1781.89 965.007ZM1798.36 955.342C1804.49 950.712 1812.01 944.252 1820.93 935.943L1823.66 938.87C1814.68 947.227 1807.05 953.788 1800.77 958.533L1798.36 955.342ZM1820.93 935.945L1855.87 903.275L1858.6 906.197L1823.66 938.867L1820.93 935.945ZM1857.24 902.736L1858.37 902.736L1858.37 906.736L1857.24 906.736L1857.24 902.736ZM1860.37 904.736L1860.37 972.349L1856.37 972.349L1856.37 904.736L1860.37 904.736ZM1858.37 970.349L1874 970.349L1874 974.349L1858.37 974.349L1858.37 970.349ZM1872 972.349L1872 880.588L1876 880.588L1876 972.349L1872 972.349ZM1728.55 1052.82L1728.55 1054.82L1726.55 1054.82L1726.55 1052.82L1728.55 1052.82ZM1874 1052.82L1876 1052.82L1876 1054.82L1874 1054.82L1874 1052.82ZM1874 1035.2L1874 1033.2L1876 1033.2L1876 1035.2L1874 1035.2ZM1747.01 1035.2L1747.01 1037.2L1745.01 1037.2L1745.01 1035.2L1747.01 1035.2ZM1747.01 1034.35L1745.01 1034.35L1745.01 1033.75L1745.35 1033.25L1747.01 1034.35ZM1770.59 998.841L1770.59 996.841L1774.32 996.841L1772.26 999.947L1770.59 998.841ZM1752.69 998.841L1751.03 997.735L1751.62 996.841L1752.69 996.841L1752.69 998.841ZM1728.55 1035.2L1726.55 1035.2L1726.55 1034.6L1726.88 1034.1L1728.55 1035.2ZM1728.55 1050.82L1874 1050.82L1874 1054.82L1728.55 1054.82L1728.55 1050.82ZM1872 1052.82L1872 1035.2L1876 1035.2L1876 1052.82L1872 1052.82ZM1874 1037.2L1747.01 1037.2L1747.01 1033.2L1874 1033.2L1874 1037.2ZM1745.01 1035.2L1745.01 1034.35L1749.01 1034.35L1749.01 1035.2L1745.01 1035.2ZM1745.35 1033.25L1768.92 997.735L1772.26 999.947L1748.68 1035.46L1745.35 1033.25ZM1770.59 1000.84L1752.69 1000.84L1752.69 996.841L1770.59 996.841L1770.59 1000.84ZM1754.36 999.947L1730.21 1036.31L1726.88 1034.1L1751.03 997.735L1754.36 999.947ZM1730.55 1035.2L1730.55 1052.82L1726.55 1052.82L1726.55 1035.2L1730.55 1035.2Z" fill="#E6E6E6"/>
</svg>
